<svg xmlns="http://www.w3.org/2000/svg" viewBox="0 0 100 112">
  <!-- Tiger head (left face + ears) -->
  <path fill="#FF6B00" d="
    M38 8
    C30 8 22 13 17 22
    C12 31 13 43 20 51
    C16 46 16 39 20 33
    C24 27 30 26 32 32
    C34 38 30 46 34 55
    C38 64 47 69 56 67
    C65 65 72 57 73 48
    C74 39 70 29 63 22
    C57 16 50 10 44 8
    C42 8 40 8 38 8Z
  "/>
  <!-- Ear tip right -->
  <path fill="#FF6B00" d="
    M63 22
    C67 14 75 10 78 17
    C81 24 75 32 69 36
    C63 40 60 33 63 22Z
  "/>
  <!-- Ear tip left -->
  <path fill="#FF6B00" d="
    M20 24
    C16 17 9 14 7 20
    C5 26 11 34 17 37
    C23 40 24 33 20 24Z
  "/>
  <!-- Lower face / chin flowing into second flame -->
  <path fill="#FF6B00" d="
    M20 51
    C14 58 12 68 16 78
    C20 88 31 95 43 94
    C55 93 64 84 65 73
    C60 78 53 81 46 78
    C39 75 36 67 40 60
    C44 53 52 51 58 55
    C54 47 47 44 40 46
    C33 48 25 49 20 51Z
  "/>
</svg>
